<svg width="2000" height="2000" xmlns="http://www.w3.org/2000/svg" xmlns:bx="https://boxy-svg.com">
<rect fill="#FF7878" width="2000" height="2000"  /><g transform="translate(1373, 394) scale(0.5)">
<path style="stroke: rgb(0, 0, 0); fill: rgb(225, 69, 65);" d="M 115.328 301.322 C 124.174 301.322 136.988 302.015 144.722 297.361 C 154.433 291.515 159.218 282.378 167.095 274.475 C 170.736 270.822 174.011 266.319 176.308 261.711 C 178.228 257.86 181.79 256.434 183.767 252.47 C 188.376 243.219 193.919 235.494 196.489 225.182 C 199.206 214.274 206.042 202.34 203.068 190.412 C 199.037 174.23 194.439 157.544 190.347 141.12 C 189.214 136.578 189.442 131.564 188.154 127.037 C 187.013 123.034 184.914 118.548 184.205 114.273 C 180.995 94.955 178.07 71.15 165.78 55.738 C 153.882 40.818 138.567 25.796 126.296 13.487 C 122.676 9.854 113.158 8.136 108.31 7.325 C 105.998 6.939 103.647 6.445 101.29 6.445 C 100.401 6.445 97.918 5.511 98.658 6.005 C 99.202 6.369 101.066 6.885 100.413 6.885 C 97.008 13.717 86.867 15.316 81.11 19.648 C 69.701 28.233 61.114 40.149 51.279 50.017 C 34.665 66.683 27.305 92.056 24.078 114.712 C 22.763 123.955 19.742 134.314 17.497 143.321 C 15.163 152.692 17.195 163.461 14.865 172.809 C 12.469 182.427 12.234 193.126 12.234 203.177 C 12.234 219.388 9.767 236.242 14.865 251.59 C 16.39 256.176 19.785 259.651 22.323 263.472 C 23.608 265.406 28.465 273.595 30.221 273.595 C 28.464 270.952 33.284 277.022 35.046 278.436 C 39.303 281.852 43.595 284.594 48.207 287.678 C 60.875 296.15 77.296 302.203 92.078 302.203"></path>
  <path d="M 103.117 256.636 L 117.646 388.111 L 88.589 388.111 L 103.117 256.636 Z" style="stroke: rgb(0, 0, 0); fill: rgb(111, 54, 15);" bx:shape="triangle 88.589 256.636 29.057 131.475 0.5 0 1@3eab460e"></path>
  <path d="M 178.107 76.563 C 157.253 28.462 130.974 1.972 104.109 1.972 C 77.244 1.972 50.965 28.462 30.111 76.563 C 12.388 117.442 1.378 167.754 1.378 207.863 C 1.378 258.884 38.59 301.858 88.571 309.421 L 84.254 387.104 L 76.599 387.104 C 73.038 387.104 70.152 389.992 70.152 393.553 C 70.152 397.113 73.038 400 76.599 400 L 131.618 400 C 135.179 400 138.065 397.113 138.065 393.553 C 138.065 389.992 135.179 387.104 131.618 387.104 L 123.963 387.104 L 119.647 309.425 C 142.955 305.883 164.351 294.4 180.302 276.772 C 197.415 257.861 206.839 233.389 206.839 207.863 C 206.839 167.754 195.83 117.442 178.107 76.563 Z M 97.17 387.104 L 104.095 262.451 C 104.099 262.451 104.104 262.452 104.109 262.452 C 104.113 262.452 104.118 262.451 104.122 262.451 L 111.048 387.104 L 97.17 387.104 Z M 170.741 268.119 C 157.068 283.228 138.824 293.158 118.927 296.464 L 116.498 252.734 L 149.932 219.3 C 152.45 216.782 152.45 212.699 149.932 210.182 C 147.414 207.664 143.331 207.664 140.814 210.182 L 115.538 235.458 L 113.964 207.127 L 129.3 191.791 C 131.818 189.273 131.818 185.19 129.3 182.673 C 126.782 180.155 122.699 180.155 120.182 182.673 L 113.005 189.851 L 110.546 145.611 C 110.357 142.194 107.532 139.521 104.109 139.521 C 100.688 139.521 97.862 142.194 97.672 145.611 L 93.767 215.914 L 67.405 189.551 C 64.887 187.033 60.804 187.033 58.287 189.551 C 55.769 192.069 55.769 196.152 58.287 198.669 L 92.808 233.189 L 89.291 296.483 C 46.206 289.362 14.273 252.065 14.273 207.863 C 14.273 169.986 25.133 120.461 41.941 81.692 C 60.354 39.224 83.012 14.867 104.109 14.867 C 125.205 14.867 147.864 39.224 166.276 81.692 C 183.084 120.461 193.945 169.986 193.945 207.863 C 193.945 230.185 185.703 251.584 170.741 268.119 Z" style=""></path>

</g>
<g transform="translate(137, 1213) scale(0.5)">
<path style="stroke: rgb(0, 0, 0); fill: rgb(225, 69, 65);" d="M 115.328 301.322 C 124.174 301.322 136.988 302.015 144.722 297.361 C 154.433 291.515 159.218 282.378 167.095 274.475 C 170.736 270.822 174.011 266.319 176.308 261.711 C 178.228 257.86 181.79 256.434 183.767 252.47 C 188.376 243.219 193.919 235.494 196.489 225.182 C 199.206 214.274 206.042 202.34 203.068 190.412 C 199.037 174.23 194.439 157.544 190.347 141.12 C 189.214 136.578 189.442 131.564 188.154 127.037 C 187.013 123.034 184.914 118.548 184.205 114.273 C 180.995 94.955 178.07 71.15 165.78 55.738 C 153.882 40.818 138.567 25.796 126.296 13.487 C 122.676 9.854 113.158 8.136 108.31 7.325 C 105.998 6.939 103.647 6.445 101.29 6.445 C 100.401 6.445 97.918 5.511 98.658 6.005 C 99.202 6.369 101.066 6.885 100.413 6.885 C 97.008 13.717 86.867 15.316 81.11 19.648 C 69.701 28.233 61.114 40.149 51.279 50.017 C 34.665 66.683 27.305 92.056 24.078 114.712 C 22.763 123.955 19.742 134.314 17.497 143.321 C 15.163 152.692 17.195 163.461 14.865 172.809 C 12.469 182.427 12.234 193.126 12.234 203.177 C 12.234 219.388 9.767 236.242 14.865 251.59 C 16.39 256.176 19.785 259.651 22.323 263.472 C 23.608 265.406 28.465 273.595 30.221 273.595 C 28.464 270.952 33.284 277.022 35.046 278.436 C 39.303 281.852 43.595 284.594 48.207 287.678 C 60.875 296.15 77.296 302.203 92.078 302.203"></path>
  <path d="M 103.117 256.636 L 117.646 388.111 L 88.589 388.111 L 103.117 256.636 Z" style="stroke: rgb(0, 0, 0); fill: rgb(111, 54, 15);" bx:shape="triangle 88.589 256.636 29.057 131.475 0.5 0 1@3eab460e"></path>
  <path d="M 178.107 76.563 C 157.253 28.462 130.974 1.972 104.109 1.972 C 77.244 1.972 50.965 28.462 30.111 76.563 C 12.388 117.442 1.378 167.754 1.378 207.863 C 1.378 258.884 38.59 301.858 88.571 309.421 L 84.254 387.104 L 76.599 387.104 C 73.038 387.104 70.152 389.992 70.152 393.553 C 70.152 397.113 73.038 400 76.599 400 L 131.618 400 C 135.179 400 138.065 397.113 138.065 393.553 C 138.065 389.992 135.179 387.104 131.618 387.104 L 123.963 387.104 L 119.647 309.425 C 142.955 305.883 164.351 294.4 180.302 276.772 C 197.415 257.861 206.839 233.389 206.839 207.863 C 206.839 167.754 195.83 117.442 178.107 76.563 Z M 97.17 387.104 L 104.095 262.451 C 104.099 262.451 104.104 262.452 104.109 262.452 C 104.113 262.452 104.118 262.451 104.122 262.451 L 111.048 387.104 L 97.17 387.104 Z M 170.741 268.119 C 157.068 283.228 138.824 293.158 118.927 296.464 L 116.498 252.734 L 149.932 219.3 C 152.45 216.782 152.45 212.699 149.932 210.182 C 147.414 207.664 143.331 207.664 140.814 210.182 L 115.538 235.458 L 113.964 207.127 L 129.3 191.791 C 131.818 189.273 131.818 185.19 129.3 182.673 C 126.782 180.155 122.699 180.155 120.182 182.673 L 113.005 189.851 L 110.546 145.611 C 110.357 142.194 107.532 139.521 104.109 139.521 C 100.688 139.521 97.862 142.194 97.672 145.611 L 93.767 215.914 L 67.405 189.551 C 64.887 187.033 60.804 187.033 58.287 189.551 C 55.769 192.069 55.769 196.152 58.287 198.669 L 92.808 233.189 L 89.291 296.483 C 46.206 289.362 14.273 252.065 14.273 207.863 C 14.273 169.986 25.133 120.461 41.941 81.692 C 60.354 39.224 83.012 14.867 104.109 14.867 C 125.205 14.867 147.864 39.224 166.276 81.692 C 183.084 120.461 193.945 169.986 193.945 207.863 C 193.945 230.185 185.703 251.584 170.741 268.119 Z" style=""></path>

</g>
<g transform="translate(76, 1166) scale(0.5)">
<path style="stroke: rgb(0, 0, 0); fill: rgb(225, 69, 65);" d="M 115.328 301.322 C 124.174 301.322 136.988 302.015 144.722 297.361 C 154.433 291.515 159.218 282.378 167.095 274.475 C 170.736 270.822 174.011 266.319 176.308 261.711 C 178.228 257.86 181.79 256.434 183.767 252.47 C 188.376 243.219 193.919 235.494 196.489 225.182 C 199.206 214.274 206.042 202.34 203.068 190.412 C 199.037 174.23 194.439 157.544 190.347 141.12 C 189.214 136.578 189.442 131.564 188.154 127.037 C 187.013 123.034 184.914 118.548 184.205 114.273 C 180.995 94.955 178.07 71.15 165.78 55.738 C 153.882 40.818 138.567 25.796 126.296 13.487 C 122.676 9.854 113.158 8.136 108.31 7.325 C 105.998 6.939 103.647 6.445 101.29 6.445 C 100.401 6.445 97.918 5.511 98.658 6.005 C 99.202 6.369 101.066 6.885 100.413 6.885 C 97.008 13.717 86.867 15.316 81.11 19.648 C 69.701 28.233 61.114 40.149 51.279 50.017 C 34.665 66.683 27.305 92.056 24.078 114.712 C 22.763 123.955 19.742 134.314 17.497 143.321 C 15.163 152.692 17.195 163.461 14.865 172.809 C 12.469 182.427 12.234 193.126 12.234 203.177 C 12.234 219.388 9.767 236.242 14.865 251.59 C 16.39 256.176 19.785 259.651 22.323 263.472 C 23.608 265.406 28.465 273.595 30.221 273.595 C 28.464 270.952 33.284 277.022 35.046 278.436 C 39.303 281.852 43.595 284.594 48.207 287.678 C 60.875 296.15 77.296 302.203 92.078 302.203"></path>
  <path d="M 103.117 256.636 L 117.646 388.111 L 88.589 388.111 L 103.117 256.636 Z" style="stroke: rgb(0, 0, 0); fill: rgb(111, 54, 15);" bx:shape="triangle 88.589 256.636 29.057 131.475 0.5 0 1@3eab460e"></path>
  <path d="M 178.107 76.563 C 157.253 28.462 130.974 1.972 104.109 1.972 C 77.244 1.972 50.965 28.462 30.111 76.563 C 12.388 117.442 1.378 167.754 1.378 207.863 C 1.378 258.884 38.59 301.858 88.571 309.421 L 84.254 387.104 L 76.599 387.104 C 73.038 387.104 70.152 389.992 70.152 393.553 C 70.152 397.113 73.038 400 76.599 400 L 131.618 400 C 135.179 400 138.065 397.113 138.065 393.553 C 138.065 389.992 135.179 387.104 131.618 387.104 L 123.963 387.104 L 119.647 309.425 C 142.955 305.883 164.351 294.4 180.302 276.772 C 197.415 257.861 206.839 233.389 206.839 207.863 C 206.839 167.754 195.83 117.442 178.107 76.563 Z M 97.17 387.104 L 104.095 262.451 C 104.099 262.451 104.104 262.452 104.109 262.452 C 104.113 262.452 104.118 262.451 104.122 262.451 L 111.048 387.104 L 97.17 387.104 Z M 170.741 268.119 C 157.068 283.228 138.824 293.158 118.927 296.464 L 116.498 252.734 L 149.932 219.3 C 152.45 216.782 152.45 212.699 149.932 210.182 C 147.414 207.664 143.331 207.664 140.814 210.182 L 115.538 235.458 L 113.964 207.127 L 129.3 191.791 C 131.818 189.273 131.818 185.19 129.3 182.673 C 126.782 180.155 122.699 180.155 120.182 182.673 L 113.005 189.851 L 110.546 145.611 C 110.357 142.194 107.532 139.521 104.109 139.521 C 100.688 139.521 97.862 142.194 97.672 145.611 L 93.767 215.914 L 67.405 189.551 C 64.887 187.033 60.804 187.033 58.287 189.551 C 55.769 192.069 55.769 196.152 58.287 198.669 L 92.808 233.189 L 89.291 296.483 C 46.206 289.362 14.273 252.065 14.273 207.863 C 14.273 169.986 25.133 120.461 41.941 81.692 C 60.354 39.224 83.012 14.867 104.109 14.867 C 125.205 14.867 147.864 39.224 166.276 81.692 C 183.084 120.461 193.945 169.986 193.945 207.863 C 193.945 230.185 185.703 251.584 170.741 268.119 Z" style=""></path>

</g>
<g transform="translate(1537, 1344) scale(0.5)">
<path style="stroke: rgb(0, 0, 0); fill: rgb(225, 69, 65);" d="M 115.328 301.322 C 124.174 301.322 136.988 302.015 144.722 297.361 C 154.433 291.515 159.218 282.378 167.095 274.475 C 170.736 270.822 174.011 266.319 176.308 261.711 C 178.228 257.86 181.79 256.434 183.767 252.47 C 188.376 243.219 193.919 235.494 196.489 225.182 C 199.206 214.274 206.042 202.34 203.068 190.412 C 199.037 174.23 194.439 157.544 190.347 141.12 C 189.214 136.578 189.442 131.564 188.154 127.037 C 187.013 123.034 184.914 118.548 184.205 114.273 C 180.995 94.955 178.07 71.15 165.78 55.738 C 153.882 40.818 138.567 25.796 126.296 13.487 C 122.676 9.854 113.158 8.136 108.31 7.325 C 105.998 6.939 103.647 6.445 101.29 6.445 C 100.401 6.445 97.918 5.511 98.658 6.005 C 99.202 6.369 101.066 6.885 100.413 6.885 C 97.008 13.717 86.867 15.316 81.11 19.648 C 69.701 28.233 61.114 40.149 51.279 50.017 C 34.665 66.683 27.305 92.056 24.078 114.712 C 22.763 123.955 19.742 134.314 17.497 143.321 C 15.163 152.692 17.195 163.461 14.865 172.809 C 12.469 182.427 12.234 193.126 12.234 203.177 C 12.234 219.388 9.767 236.242 14.865 251.59 C 16.39 256.176 19.785 259.651 22.323 263.472 C 23.608 265.406 28.465 273.595 30.221 273.595 C 28.464 270.952 33.284 277.022 35.046 278.436 C 39.303 281.852 43.595 284.594 48.207 287.678 C 60.875 296.15 77.296 302.203 92.078 302.203"></path>
  <path d="M 103.117 256.636 L 117.646 388.111 L 88.589 388.111 L 103.117 256.636 Z" style="stroke: rgb(0, 0, 0); fill: rgb(111, 54, 15);" bx:shape="triangle 88.589 256.636 29.057 131.475 0.5 0 1@3eab460e"></path>
  <path d="M 178.107 76.563 C 157.253 28.462 130.974 1.972 104.109 1.972 C 77.244 1.972 50.965 28.462 30.111 76.563 C 12.388 117.442 1.378 167.754 1.378 207.863 C 1.378 258.884 38.59 301.858 88.571 309.421 L 84.254 387.104 L 76.599 387.104 C 73.038 387.104 70.152 389.992 70.152 393.553 C 70.152 397.113 73.038 400 76.599 400 L 131.618 400 C 135.179 400 138.065 397.113 138.065 393.553 C 138.065 389.992 135.179 387.104 131.618 387.104 L 123.963 387.104 L 119.647 309.425 C 142.955 305.883 164.351 294.4 180.302 276.772 C 197.415 257.861 206.839 233.389 206.839 207.863 C 206.839 167.754 195.83 117.442 178.107 76.563 Z M 97.17 387.104 L 104.095 262.451 C 104.099 262.451 104.104 262.452 104.109 262.452 C 104.113 262.452 104.118 262.451 104.122 262.451 L 111.048 387.104 L 97.17 387.104 Z M 170.741 268.119 C 157.068 283.228 138.824 293.158 118.927 296.464 L 116.498 252.734 L 149.932 219.3 C 152.45 216.782 152.45 212.699 149.932 210.182 C 147.414 207.664 143.331 207.664 140.814 210.182 L 115.538 235.458 L 113.964 207.127 L 129.3 191.791 C 131.818 189.273 131.818 185.19 129.3 182.673 C 126.782 180.155 122.699 180.155 120.182 182.673 L 113.005 189.851 L 110.546 145.611 C 110.357 142.194 107.532 139.521 104.109 139.521 C 100.688 139.521 97.862 142.194 97.672 145.611 L 93.767 215.914 L 67.405 189.551 C 64.887 187.033 60.804 187.033 58.287 189.551 C 55.769 192.069 55.769 196.152 58.287 198.669 L 92.808 233.189 L 89.291 296.483 C 46.206 289.362 14.273 252.065 14.273 207.863 C 14.273 169.986 25.133 120.461 41.941 81.692 C 60.354 39.224 83.012 14.867 104.109 14.867 C 125.205 14.867 147.864 39.224 166.276 81.692 C 183.084 120.461 193.945 169.986 193.945 207.863 C 193.945 230.185 185.703 251.584 170.741 268.119 Z" style=""></path>

</g>
<g transform="translate(741, 1556) scale(0.5)">
<path style="stroke: rgb(0, 0, 0); fill: rgb(225, 69, 65);" d="M 115.328 301.322 C 124.174 301.322 136.988 302.015 144.722 297.361 C 154.433 291.515 159.218 282.378 167.095 274.475 C 170.736 270.822 174.011 266.319 176.308 261.711 C 178.228 257.86 181.79 256.434 183.767 252.47 C 188.376 243.219 193.919 235.494 196.489 225.182 C 199.206 214.274 206.042 202.34 203.068 190.412 C 199.037 174.23 194.439 157.544 190.347 141.12 C 189.214 136.578 189.442 131.564 188.154 127.037 C 187.013 123.034 184.914 118.548 184.205 114.273 C 180.995 94.955 178.07 71.15 165.78 55.738 C 153.882 40.818 138.567 25.796 126.296 13.487 C 122.676 9.854 113.158 8.136 108.31 7.325 C 105.998 6.939 103.647 6.445 101.29 6.445 C 100.401 6.445 97.918 5.511 98.658 6.005 C 99.202 6.369 101.066 6.885 100.413 6.885 C 97.008 13.717 86.867 15.316 81.11 19.648 C 69.701 28.233 61.114 40.149 51.279 50.017 C 34.665 66.683 27.305 92.056 24.078 114.712 C 22.763 123.955 19.742 134.314 17.497 143.321 C 15.163 152.692 17.195 163.461 14.865 172.809 C 12.469 182.427 12.234 193.126 12.234 203.177 C 12.234 219.388 9.767 236.242 14.865 251.59 C 16.39 256.176 19.785 259.651 22.323 263.472 C 23.608 265.406 28.465 273.595 30.221 273.595 C 28.464 270.952 33.284 277.022 35.046 278.436 C 39.303 281.852 43.595 284.594 48.207 287.678 C 60.875 296.15 77.296 302.203 92.078 302.203"></path>
  <path d="M 103.117 256.636 L 117.646 388.111 L 88.589 388.111 L 103.117 256.636 Z" style="stroke: rgb(0, 0, 0); fill: rgb(111, 54, 15);" bx:shape="triangle 88.589 256.636 29.057 131.475 0.5 0 1@3eab460e"></path>
  <path d="M 178.107 76.563 C 157.253 28.462 130.974 1.972 104.109 1.972 C 77.244 1.972 50.965 28.462 30.111 76.563 C 12.388 117.442 1.378 167.754 1.378 207.863 C 1.378 258.884 38.59 301.858 88.571 309.421 L 84.254 387.104 L 76.599 387.104 C 73.038 387.104 70.152 389.992 70.152 393.553 C 70.152 397.113 73.038 400 76.599 400 L 131.618 400 C 135.179 400 138.065 397.113 138.065 393.553 C 138.065 389.992 135.179 387.104 131.618 387.104 L 123.963 387.104 L 119.647 309.425 C 142.955 305.883 164.351 294.4 180.302 276.772 C 197.415 257.861 206.839 233.389 206.839 207.863 C 206.839 167.754 195.83 117.442 178.107 76.563 Z M 97.17 387.104 L 104.095 262.451 C 104.099 262.451 104.104 262.452 104.109 262.452 C 104.113 262.452 104.118 262.451 104.122 262.451 L 111.048 387.104 L 97.17 387.104 Z M 170.741 268.119 C 157.068 283.228 138.824 293.158 118.927 296.464 L 116.498 252.734 L 149.932 219.3 C 152.45 216.782 152.45 212.699 149.932 210.182 C 147.414 207.664 143.331 207.664 140.814 210.182 L 115.538 235.458 L 113.964 207.127 L 129.3 191.791 C 131.818 189.273 131.818 185.19 129.3 182.673 C 126.782 180.155 122.699 180.155 120.182 182.673 L 113.005 189.851 L 110.546 145.611 C 110.357 142.194 107.532 139.521 104.109 139.521 C 100.688 139.521 97.862 142.194 97.672 145.611 L 93.767 215.914 L 67.405 189.551 C 64.887 187.033 60.804 187.033 58.287 189.551 C 55.769 192.069 55.769 196.152 58.287 198.669 L 92.808 233.189 L 89.291 296.483 C 46.206 289.362 14.273 252.065 14.273 207.863 C 14.273 169.986 25.133 120.461 41.941 81.692 C 60.354 39.224 83.012 14.867 104.109 14.867 C 125.205 14.867 147.864 39.224 166.276 81.692 C 183.084 120.461 193.945 169.986 193.945 207.863 C 193.945 230.185 185.703 251.584 170.741 268.119 Z" style=""></path>

</g>
<g transform="translate(1695, 231) scale(0.5)">
<path style="stroke: rgb(0, 0, 0); fill: rgb(225, 69, 65);" d="M 115.328 301.322 C 124.174 301.322 136.988 302.015 144.722 297.361 C 154.433 291.515 159.218 282.378 167.095 274.475 C 170.736 270.822 174.011 266.319 176.308 261.711 C 178.228 257.86 181.79 256.434 183.767 252.47 C 188.376 243.219 193.919 235.494 196.489 225.182 C 199.206 214.274 206.042 202.34 203.068 190.412 C 199.037 174.23 194.439 157.544 190.347 141.12 C 189.214 136.578 189.442 131.564 188.154 127.037 C 187.013 123.034 184.914 118.548 184.205 114.273 C 180.995 94.955 178.07 71.15 165.78 55.738 C 153.882 40.818 138.567 25.796 126.296 13.487 C 122.676 9.854 113.158 8.136 108.31 7.325 C 105.998 6.939 103.647 6.445 101.29 6.445 C 100.401 6.445 97.918 5.511 98.658 6.005 C 99.202 6.369 101.066 6.885 100.413 6.885 C 97.008 13.717 86.867 15.316 81.11 19.648 C 69.701 28.233 61.114 40.149 51.279 50.017 C 34.665 66.683 27.305 92.056 24.078 114.712 C 22.763 123.955 19.742 134.314 17.497 143.321 C 15.163 152.692 17.195 163.461 14.865 172.809 C 12.469 182.427 12.234 193.126 12.234 203.177 C 12.234 219.388 9.767 236.242 14.865 251.59 C 16.39 256.176 19.785 259.651 22.323 263.472 C 23.608 265.406 28.465 273.595 30.221 273.595 C 28.464 270.952 33.284 277.022 35.046 278.436 C 39.303 281.852 43.595 284.594 48.207 287.678 C 60.875 296.15 77.296 302.203 92.078 302.203"></path>
  <path d="M 103.117 256.636 L 117.646 388.111 L 88.589 388.111 L 103.117 256.636 Z" style="stroke: rgb(0, 0, 0); fill: rgb(111, 54, 15);" bx:shape="triangle 88.589 256.636 29.057 131.475 0.5 0 1@3eab460e"></path>
  <path d="M 178.107 76.563 C 157.253 28.462 130.974 1.972 104.109 1.972 C 77.244 1.972 50.965 28.462 30.111 76.563 C 12.388 117.442 1.378 167.754 1.378 207.863 C 1.378 258.884 38.59 301.858 88.571 309.421 L 84.254 387.104 L 76.599 387.104 C 73.038 387.104 70.152 389.992 70.152 393.553 C 70.152 397.113 73.038 400 76.599 400 L 131.618 400 C 135.179 400 138.065 397.113 138.065 393.553 C 138.065 389.992 135.179 387.104 131.618 387.104 L 123.963 387.104 L 119.647 309.425 C 142.955 305.883 164.351 294.4 180.302 276.772 C 197.415 257.861 206.839 233.389 206.839 207.863 C 206.839 167.754 195.83 117.442 178.107 76.563 Z M 97.17 387.104 L 104.095 262.451 C 104.099 262.451 104.104 262.452 104.109 262.452 C 104.113 262.452 104.118 262.451 104.122 262.451 L 111.048 387.104 L 97.17 387.104 Z M 170.741 268.119 C 157.068 283.228 138.824 293.158 118.927 296.464 L 116.498 252.734 L 149.932 219.3 C 152.45 216.782 152.45 212.699 149.932 210.182 C 147.414 207.664 143.331 207.664 140.814 210.182 L 115.538 235.458 L 113.964 207.127 L 129.3 191.791 C 131.818 189.273 131.818 185.19 129.3 182.673 C 126.782 180.155 122.699 180.155 120.182 182.673 L 113.005 189.851 L 110.546 145.611 C 110.357 142.194 107.532 139.521 104.109 139.521 C 100.688 139.521 97.862 142.194 97.672 145.611 L 93.767 215.914 L 67.405 189.551 C 64.887 187.033 60.804 187.033 58.287 189.551 C 55.769 192.069 55.769 196.152 58.287 198.669 L 92.808 233.189 L 89.291 296.483 C 46.206 289.362 14.273 252.065 14.273 207.863 C 14.273 169.986 25.133 120.461 41.941 81.692 C 60.354 39.224 83.012 14.867 104.109 14.867 C 125.205 14.867 147.864 39.224 166.276 81.692 C 183.084 120.461 193.945 169.986 193.945 207.863 C 193.945 230.185 185.703 251.584 170.741 268.119 Z" style=""></path>

</g>
<g transform="translate(718, 1308) scale(0.5)">
<path style="stroke: rgb(0, 0, 0); fill: rgb(225, 69, 65);" d="M 115.328 301.322 C 124.174 301.322 136.988 302.015 144.722 297.361 C 154.433 291.515 159.218 282.378 167.095 274.475 C 170.736 270.822 174.011 266.319 176.308 261.711 C 178.228 257.86 181.79 256.434 183.767 252.47 C 188.376 243.219 193.919 235.494 196.489 225.182 C 199.206 214.274 206.042 202.34 203.068 190.412 C 199.037 174.23 194.439 157.544 190.347 141.12 C 189.214 136.578 189.442 131.564 188.154 127.037 C 187.013 123.034 184.914 118.548 184.205 114.273 C 180.995 94.955 178.07 71.15 165.78 55.738 C 153.882 40.818 138.567 25.796 126.296 13.487 C 122.676 9.854 113.158 8.136 108.31 7.325 C 105.998 6.939 103.647 6.445 101.29 6.445 C 100.401 6.445 97.918 5.511 98.658 6.005 C 99.202 6.369 101.066 6.885 100.413 6.885 C 97.008 13.717 86.867 15.316 81.11 19.648 C 69.701 28.233 61.114 40.149 51.279 50.017 C 34.665 66.683 27.305 92.056 24.078 114.712 C 22.763 123.955 19.742 134.314 17.497 143.321 C 15.163 152.692 17.195 163.461 14.865 172.809 C 12.469 182.427 12.234 193.126 12.234 203.177 C 12.234 219.388 9.767 236.242 14.865 251.59 C 16.39 256.176 19.785 259.651 22.323 263.472 C 23.608 265.406 28.465 273.595 30.221 273.595 C 28.464 270.952 33.284 277.022 35.046 278.436 C 39.303 281.852 43.595 284.594 48.207 287.678 C 60.875 296.15 77.296 302.203 92.078 302.203"></path>
  <path d="M 103.117 256.636 L 117.646 388.111 L 88.589 388.111 L 103.117 256.636 Z" style="stroke: rgb(0, 0, 0); fill: rgb(111, 54, 15);" bx:shape="triangle 88.589 256.636 29.057 131.475 0.5 0 1@3eab460e"></path>
  <path d="M 178.107 76.563 C 157.253 28.462 130.974 1.972 104.109 1.972 C 77.244 1.972 50.965 28.462 30.111 76.563 C 12.388 117.442 1.378 167.754 1.378 207.863 C 1.378 258.884 38.59 301.858 88.571 309.421 L 84.254 387.104 L 76.599 387.104 C 73.038 387.104 70.152 389.992 70.152 393.553 C 70.152 397.113 73.038 400 76.599 400 L 131.618 400 C 135.179 400 138.065 397.113 138.065 393.553 C 138.065 389.992 135.179 387.104 131.618 387.104 L 123.963 387.104 L 119.647 309.425 C 142.955 305.883 164.351 294.4 180.302 276.772 C 197.415 257.861 206.839 233.389 206.839 207.863 C 206.839 167.754 195.83 117.442 178.107 76.563 Z M 97.17 387.104 L 104.095 262.451 C 104.099 262.451 104.104 262.452 104.109 262.452 C 104.113 262.452 104.118 262.451 104.122 262.451 L 111.048 387.104 L 97.17 387.104 Z M 170.741 268.119 C 157.068 283.228 138.824 293.158 118.927 296.464 L 116.498 252.734 L 149.932 219.3 C 152.45 216.782 152.45 212.699 149.932 210.182 C 147.414 207.664 143.331 207.664 140.814 210.182 L 115.538 235.458 L 113.964 207.127 L 129.3 191.791 C 131.818 189.273 131.818 185.19 129.3 182.673 C 126.782 180.155 122.699 180.155 120.182 182.673 L 113.005 189.851 L 110.546 145.611 C 110.357 142.194 107.532 139.521 104.109 139.521 C 100.688 139.521 97.862 142.194 97.672 145.611 L 93.767 215.914 L 67.405 189.551 C 64.887 187.033 60.804 187.033 58.287 189.551 C 55.769 192.069 55.769 196.152 58.287 198.669 L 92.808 233.189 L 89.291 296.483 C 46.206 289.362 14.273 252.065 14.273 207.863 C 14.273 169.986 25.133 120.461 41.941 81.692 C 60.354 39.224 83.012 14.867 104.109 14.867 C 125.205 14.867 147.864 39.224 166.276 81.692 C 183.084 120.461 193.945 169.986 193.945 207.863 C 193.945 230.185 185.703 251.584 170.741 268.119 Z" style=""></path>

</g>
<g transform="translate(1061, 1113) scale(0.5)">
<path style="stroke: rgb(0, 0, 0); fill: rgb(225, 69, 65);" d="M 115.328 301.322 C 124.174 301.322 136.988 302.015 144.722 297.361 C 154.433 291.515 159.218 282.378 167.095 274.475 C 170.736 270.822 174.011 266.319 176.308 261.711 C 178.228 257.86 181.79 256.434 183.767 252.47 C 188.376 243.219 193.919 235.494 196.489 225.182 C 199.206 214.274 206.042 202.34 203.068 190.412 C 199.037 174.23 194.439 157.544 190.347 141.12 C 189.214 136.578 189.442 131.564 188.154 127.037 C 187.013 123.034 184.914 118.548 184.205 114.273 C 180.995 94.955 178.07 71.15 165.78 55.738 C 153.882 40.818 138.567 25.796 126.296 13.487 C 122.676 9.854 113.158 8.136 108.31 7.325 C 105.998 6.939 103.647 6.445 101.29 6.445 C 100.401 6.445 97.918 5.511 98.658 6.005 C 99.202 6.369 101.066 6.885 100.413 6.885 C 97.008 13.717 86.867 15.316 81.11 19.648 C 69.701 28.233 61.114 40.149 51.279 50.017 C 34.665 66.683 27.305 92.056 24.078 114.712 C 22.763 123.955 19.742 134.314 17.497 143.321 C 15.163 152.692 17.195 163.461 14.865 172.809 C 12.469 182.427 12.234 193.126 12.234 203.177 C 12.234 219.388 9.767 236.242 14.865 251.59 C 16.39 256.176 19.785 259.651 22.323 263.472 C 23.608 265.406 28.465 273.595 30.221 273.595 C 28.464 270.952 33.284 277.022 35.046 278.436 C 39.303 281.852 43.595 284.594 48.207 287.678 C 60.875 296.15 77.296 302.203 92.078 302.203"></path>
  <path d="M 103.117 256.636 L 117.646 388.111 L 88.589 388.111 L 103.117 256.636 Z" style="stroke: rgb(0, 0, 0); fill: rgb(111, 54, 15);" bx:shape="triangle 88.589 256.636 29.057 131.475 0.5 0 1@3eab460e"></path>
  <path d="M 178.107 76.563 C 157.253 28.462 130.974 1.972 104.109 1.972 C 77.244 1.972 50.965 28.462 30.111 76.563 C 12.388 117.442 1.378 167.754 1.378 207.863 C 1.378 258.884 38.59 301.858 88.571 309.421 L 84.254 387.104 L 76.599 387.104 C 73.038 387.104 70.152 389.992 70.152 393.553 C 70.152 397.113 73.038 400 76.599 400 L 131.618 400 C 135.179 400 138.065 397.113 138.065 393.553 C 138.065 389.992 135.179 387.104 131.618 387.104 L 123.963 387.104 L 119.647 309.425 C 142.955 305.883 164.351 294.4 180.302 276.772 C 197.415 257.861 206.839 233.389 206.839 207.863 C 206.839 167.754 195.83 117.442 178.107 76.563 Z M 97.17 387.104 L 104.095 262.451 C 104.099 262.451 104.104 262.452 104.109 262.452 C 104.113 262.452 104.118 262.451 104.122 262.451 L 111.048 387.104 L 97.17 387.104 Z M 170.741 268.119 C 157.068 283.228 138.824 293.158 118.927 296.464 L 116.498 252.734 L 149.932 219.3 C 152.45 216.782 152.45 212.699 149.932 210.182 C 147.414 207.664 143.331 207.664 140.814 210.182 L 115.538 235.458 L 113.964 207.127 L 129.3 191.791 C 131.818 189.273 131.818 185.19 129.3 182.673 C 126.782 180.155 122.699 180.155 120.182 182.673 L 113.005 189.851 L 110.546 145.611 C 110.357 142.194 107.532 139.521 104.109 139.521 C 100.688 139.521 97.862 142.194 97.672 145.611 L 93.767 215.914 L 67.405 189.551 C 64.887 187.033 60.804 187.033 58.287 189.551 C 55.769 192.069 55.769 196.152 58.287 198.669 L 92.808 233.189 L 89.291 296.483 C 46.206 289.362 14.273 252.065 14.273 207.863 C 14.273 169.986 25.133 120.461 41.941 81.692 C 60.354 39.224 83.012 14.867 104.109 14.867 C 125.205 14.867 147.864 39.224 166.276 81.692 C 183.084 120.461 193.945 169.986 193.945 207.863 C 193.945 230.185 185.703 251.584 170.741 268.119 Z" style=""></path>

</g>
<g transform="translate(1236, 1390) scale(0.5)">
<path style="stroke: rgb(0, 0, 0); fill: rgb(225, 69, 65);" d="M 115.328 301.322 C 124.174 301.322 136.988 302.015 144.722 297.361 C 154.433 291.515 159.218 282.378 167.095 274.475 C 170.736 270.822 174.011 266.319 176.308 261.711 C 178.228 257.86 181.79 256.434 183.767 252.47 C 188.376 243.219 193.919 235.494 196.489 225.182 C 199.206 214.274 206.042 202.34 203.068 190.412 C 199.037 174.23 194.439 157.544 190.347 141.12 C 189.214 136.578 189.442 131.564 188.154 127.037 C 187.013 123.034 184.914 118.548 184.205 114.273 C 180.995 94.955 178.07 71.15 165.78 55.738 C 153.882 40.818 138.567 25.796 126.296 13.487 C 122.676 9.854 113.158 8.136 108.31 7.325 C 105.998 6.939 103.647 6.445 101.29 6.445 C 100.401 6.445 97.918 5.511 98.658 6.005 C 99.202 6.369 101.066 6.885 100.413 6.885 C 97.008 13.717 86.867 15.316 81.11 19.648 C 69.701 28.233 61.114 40.149 51.279 50.017 C 34.665 66.683 27.305 92.056 24.078 114.712 C 22.763 123.955 19.742 134.314 17.497 143.321 C 15.163 152.692 17.195 163.461 14.865 172.809 C 12.469 182.427 12.234 193.126 12.234 203.177 C 12.234 219.388 9.767 236.242 14.865 251.59 C 16.39 256.176 19.785 259.651 22.323 263.472 C 23.608 265.406 28.465 273.595 30.221 273.595 C 28.464 270.952 33.284 277.022 35.046 278.436 C 39.303 281.852 43.595 284.594 48.207 287.678 C 60.875 296.15 77.296 302.203 92.078 302.203"></path>
  <path d="M 103.117 256.636 L 117.646 388.111 L 88.589 388.111 L 103.117 256.636 Z" style="stroke: rgb(0, 0, 0); fill: rgb(111, 54, 15);" bx:shape="triangle 88.589 256.636 29.057 131.475 0.5 0 1@3eab460e"></path>
  <path d="M 178.107 76.563 C 157.253 28.462 130.974 1.972 104.109 1.972 C 77.244 1.972 50.965 28.462 30.111 76.563 C 12.388 117.442 1.378 167.754 1.378 207.863 C 1.378 258.884 38.59 301.858 88.571 309.421 L 84.254 387.104 L 76.599 387.104 C 73.038 387.104 70.152 389.992 70.152 393.553 C 70.152 397.113 73.038 400 76.599 400 L 131.618 400 C 135.179 400 138.065 397.113 138.065 393.553 C 138.065 389.992 135.179 387.104 131.618 387.104 L 123.963 387.104 L 119.647 309.425 C 142.955 305.883 164.351 294.4 180.302 276.772 C 197.415 257.861 206.839 233.389 206.839 207.863 C 206.839 167.754 195.83 117.442 178.107 76.563 Z M 97.17 387.104 L 104.095 262.451 C 104.099 262.451 104.104 262.452 104.109 262.452 C 104.113 262.452 104.118 262.451 104.122 262.451 L 111.048 387.104 L 97.17 387.104 Z M 170.741 268.119 C 157.068 283.228 138.824 293.158 118.927 296.464 L 116.498 252.734 L 149.932 219.3 C 152.45 216.782 152.45 212.699 149.932 210.182 C 147.414 207.664 143.331 207.664 140.814 210.182 L 115.538 235.458 L 113.964 207.127 L 129.3 191.791 C 131.818 189.273 131.818 185.19 129.3 182.673 C 126.782 180.155 122.699 180.155 120.182 182.673 L 113.005 189.851 L 110.546 145.611 C 110.357 142.194 107.532 139.521 104.109 139.521 C 100.688 139.521 97.862 142.194 97.672 145.611 L 93.767 215.914 L 67.405 189.551 C 64.887 187.033 60.804 187.033 58.287 189.551 C 55.769 192.069 55.769 196.152 58.287 198.669 L 92.808 233.189 L 89.291 296.483 C 46.206 289.362 14.273 252.065 14.273 207.863 C 14.273 169.986 25.133 120.461 41.941 81.692 C 60.354 39.224 83.012 14.867 104.109 14.867 C 125.205 14.867 147.864 39.224 166.276 81.692 C 183.084 120.461 193.945 169.986 193.945 207.863 C 193.945 230.185 185.703 251.584 170.741 268.119 Z" style=""></path>

</g>
<g transform="translate(1156, 1605) scale(0.5)">
<path style="stroke: rgb(0, 0, 0); fill: rgb(225, 69, 65);" d="M 115.328 301.322 C 124.174 301.322 136.988 302.015 144.722 297.361 C 154.433 291.515 159.218 282.378 167.095 274.475 C 170.736 270.822 174.011 266.319 176.308 261.711 C 178.228 257.86 181.79 256.434 183.767 252.47 C 188.376 243.219 193.919 235.494 196.489 225.182 C 199.206 214.274 206.042 202.34 203.068 190.412 C 199.037 174.23 194.439 157.544 190.347 141.12 C 189.214 136.578 189.442 131.564 188.154 127.037 C 187.013 123.034 184.914 118.548 184.205 114.273 C 180.995 94.955 178.07 71.15 165.78 55.738 C 153.882 40.818 138.567 25.796 126.296 13.487 C 122.676 9.854 113.158 8.136 108.31 7.325 C 105.998 6.939 103.647 6.445 101.29 6.445 C 100.401 6.445 97.918 5.511 98.658 6.005 C 99.202 6.369 101.066 6.885 100.413 6.885 C 97.008 13.717 86.867 15.316 81.11 19.648 C 69.701 28.233 61.114 40.149 51.279 50.017 C 34.665 66.683 27.305 92.056 24.078 114.712 C 22.763 123.955 19.742 134.314 17.497 143.321 C 15.163 152.692 17.195 163.461 14.865 172.809 C 12.469 182.427 12.234 193.126 12.234 203.177 C 12.234 219.388 9.767 236.242 14.865 251.59 C 16.39 256.176 19.785 259.651 22.323 263.472 C 23.608 265.406 28.465 273.595 30.221 273.595 C 28.464 270.952 33.284 277.022 35.046 278.436 C 39.303 281.852 43.595 284.594 48.207 287.678 C 60.875 296.15 77.296 302.203 92.078 302.203"></path>
  <path d="M 103.117 256.636 L 117.646 388.111 L 88.589 388.111 L 103.117 256.636 Z" style="stroke: rgb(0, 0, 0); fill: rgb(111, 54, 15);" bx:shape="triangle 88.589 256.636 29.057 131.475 0.5 0 1@3eab460e"></path>
  <path d="M 178.107 76.563 C 157.253 28.462 130.974 1.972 104.109 1.972 C 77.244 1.972 50.965 28.462 30.111 76.563 C 12.388 117.442 1.378 167.754 1.378 207.863 C 1.378 258.884 38.59 301.858 88.571 309.421 L 84.254 387.104 L 76.599 387.104 C 73.038 387.104 70.152 389.992 70.152 393.553 C 70.152 397.113 73.038 400 76.599 400 L 131.618 400 C 135.179 400 138.065 397.113 138.065 393.553 C 138.065 389.992 135.179 387.104 131.618 387.104 L 123.963 387.104 L 119.647 309.425 C 142.955 305.883 164.351 294.4 180.302 276.772 C 197.415 257.861 206.839 233.389 206.839 207.863 C 206.839 167.754 195.83 117.442 178.107 76.563 Z M 97.17 387.104 L 104.095 262.451 C 104.099 262.451 104.104 262.452 104.109 262.452 C 104.113 262.452 104.118 262.451 104.122 262.451 L 111.048 387.104 L 97.17 387.104 Z M 170.741 268.119 C 157.068 283.228 138.824 293.158 118.927 296.464 L 116.498 252.734 L 149.932 219.3 C 152.45 216.782 152.45 212.699 149.932 210.182 C 147.414 207.664 143.331 207.664 140.814 210.182 L 115.538 235.458 L 113.964 207.127 L 129.3 191.791 C 131.818 189.273 131.818 185.19 129.3 182.673 C 126.782 180.155 122.699 180.155 120.182 182.673 L 113.005 189.851 L 110.546 145.611 C 110.357 142.194 107.532 139.521 104.109 139.521 C 100.688 139.521 97.862 142.194 97.672 145.611 L 93.767 215.914 L 67.405 189.551 C 64.887 187.033 60.804 187.033 58.287 189.551 C 55.769 192.069 55.769 196.152 58.287 198.669 L 92.808 233.189 L 89.291 296.483 C 46.206 289.362 14.273 252.065 14.273 207.863 C 14.273 169.986 25.133 120.461 41.941 81.692 C 60.354 39.224 83.012 14.867 104.109 14.867 C 125.205 14.867 147.864 39.224 166.276 81.692 C 183.084 120.461 193.945 169.986 193.945 207.863 C 193.945 230.185 185.703 251.584 170.741 268.119 Z" style=""></path>

</g>
<g transform="translate(528, 971) scale(0.5)">
<path style="stroke: rgb(0, 0, 0); fill: rgb(225, 69, 65);" d="M 115.328 301.322 C 124.174 301.322 136.988 302.015 144.722 297.361 C 154.433 291.515 159.218 282.378 167.095 274.475 C 170.736 270.822 174.011 266.319 176.308 261.711 C 178.228 257.86 181.79 256.434 183.767 252.47 C 188.376 243.219 193.919 235.494 196.489 225.182 C 199.206 214.274 206.042 202.34 203.068 190.412 C 199.037 174.23 194.439 157.544 190.347 141.12 C 189.214 136.578 189.442 131.564 188.154 127.037 C 187.013 123.034 184.914 118.548 184.205 114.273 C 180.995 94.955 178.07 71.15 165.78 55.738 C 153.882 40.818 138.567 25.796 126.296 13.487 C 122.676 9.854 113.158 8.136 108.31 7.325 C 105.998 6.939 103.647 6.445 101.29 6.445 C 100.401 6.445 97.918 5.511 98.658 6.005 C 99.202 6.369 101.066 6.885 100.413 6.885 C 97.008 13.717 86.867 15.316 81.11 19.648 C 69.701 28.233 61.114 40.149 51.279 50.017 C 34.665 66.683 27.305 92.056 24.078 114.712 C 22.763 123.955 19.742 134.314 17.497 143.321 C 15.163 152.692 17.195 163.461 14.865 172.809 C 12.469 182.427 12.234 193.126 12.234 203.177 C 12.234 219.388 9.767 236.242 14.865 251.59 C 16.39 256.176 19.785 259.651 22.323 263.472 C 23.608 265.406 28.465 273.595 30.221 273.595 C 28.464 270.952 33.284 277.022 35.046 278.436 C 39.303 281.852 43.595 284.594 48.207 287.678 C 60.875 296.15 77.296 302.203 92.078 302.203"></path>
  <path d="M 103.117 256.636 L 117.646 388.111 L 88.589 388.111 L 103.117 256.636 Z" style="stroke: rgb(0, 0, 0); fill: rgb(111, 54, 15);" bx:shape="triangle 88.589 256.636 29.057 131.475 0.5 0 1@3eab460e"></path>
  <path d="M 178.107 76.563 C 157.253 28.462 130.974 1.972 104.109 1.972 C 77.244 1.972 50.965 28.462 30.111 76.563 C 12.388 117.442 1.378 167.754 1.378 207.863 C 1.378 258.884 38.59 301.858 88.571 309.421 L 84.254 387.104 L 76.599 387.104 C 73.038 387.104 70.152 389.992 70.152 393.553 C 70.152 397.113 73.038 400 76.599 400 L 131.618 400 C 135.179 400 138.065 397.113 138.065 393.553 C 138.065 389.992 135.179 387.104 131.618 387.104 L 123.963 387.104 L 119.647 309.425 C 142.955 305.883 164.351 294.4 180.302 276.772 C 197.415 257.861 206.839 233.389 206.839 207.863 C 206.839 167.754 195.83 117.442 178.107 76.563 Z M 97.17 387.104 L 104.095 262.451 C 104.099 262.451 104.104 262.452 104.109 262.452 C 104.113 262.452 104.118 262.451 104.122 262.451 L 111.048 387.104 L 97.17 387.104 Z M 170.741 268.119 C 157.068 283.228 138.824 293.158 118.927 296.464 L 116.498 252.734 L 149.932 219.3 C 152.45 216.782 152.45 212.699 149.932 210.182 C 147.414 207.664 143.331 207.664 140.814 210.182 L 115.538 235.458 L 113.964 207.127 L 129.3 191.791 C 131.818 189.273 131.818 185.19 129.3 182.673 C 126.782 180.155 122.699 180.155 120.182 182.673 L 113.005 189.851 L 110.546 145.611 C 110.357 142.194 107.532 139.521 104.109 139.521 C 100.688 139.521 97.862 142.194 97.672 145.611 L 93.767 215.914 L 67.405 189.551 C 64.887 187.033 60.804 187.033 58.287 189.551 C 55.769 192.069 55.769 196.152 58.287 198.669 L 92.808 233.189 L 89.291 296.483 C 46.206 289.362 14.273 252.065 14.273 207.863 C 14.273 169.986 25.133 120.461 41.941 81.692 C 60.354 39.224 83.012 14.867 104.109 14.867 C 125.205 14.867 147.864 39.224 166.276 81.692 C 183.084 120.461 193.945 169.986 193.945 207.863 C 193.945 230.185 185.703 251.584 170.741 268.119 Z" style=""></path>

</g>
<g transform="translate(191, 1719) scale(0.5)">
<path style="stroke: rgb(0, 0, 0); fill: rgb(225, 69, 65);" d="M 115.328 301.322 C 124.174 301.322 136.988 302.015 144.722 297.361 C 154.433 291.515 159.218 282.378 167.095 274.475 C 170.736 270.822 174.011 266.319 176.308 261.711 C 178.228 257.86 181.79 256.434 183.767 252.47 C 188.376 243.219 193.919 235.494 196.489 225.182 C 199.206 214.274 206.042 202.34 203.068 190.412 C 199.037 174.23 194.439 157.544 190.347 141.12 C 189.214 136.578 189.442 131.564 188.154 127.037 C 187.013 123.034 184.914 118.548 184.205 114.273 C 180.995 94.955 178.07 71.15 165.78 55.738 C 153.882 40.818 138.567 25.796 126.296 13.487 C 122.676 9.854 113.158 8.136 108.31 7.325 C 105.998 6.939 103.647 6.445 101.29 6.445 C 100.401 6.445 97.918 5.511 98.658 6.005 C 99.202 6.369 101.066 6.885 100.413 6.885 C 97.008 13.717 86.867 15.316 81.11 19.648 C 69.701 28.233 61.114 40.149 51.279 50.017 C 34.665 66.683 27.305 92.056 24.078 114.712 C 22.763 123.955 19.742 134.314 17.497 143.321 C 15.163 152.692 17.195 163.461 14.865 172.809 C 12.469 182.427 12.234 193.126 12.234 203.177 C 12.234 219.388 9.767 236.242 14.865 251.59 C 16.39 256.176 19.785 259.651 22.323 263.472 C 23.608 265.406 28.465 273.595 30.221 273.595 C 28.464 270.952 33.284 277.022 35.046 278.436 C 39.303 281.852 43.595 284.594 48.207 287.678 C 60.875 296.15 77.296 302.203 92.078 302.203"></path>
  <path d="M 103.117 256.636 L 117.646 388.111 L 88.589 388.111 L 103.117 256.636 Z" style="stroke: rgb(0, 0, 0); fill: rgb(111, 54, 15);" bx:shape="triangle 88.589 256.636 29.057 131.475 0.5 0 1@3eab460e"></path>
  <path d="M 178.107 76.563 C 157.253 28.462 130.974 1.972 104.109 1.972 C 77.244 1.972 50.965 28.462 30.111 76.563 C 12.388 117.442 1.378 167.754 1.378 207.863 C 1.378 258.884 38.59 301.858 88.571 309.421 L 84.254 387.104 L 76.599 387.104 C 73.038 387.104 70.152 389.992 70.152 393.553 C 70.152 397.113 73.038 400 76.599 400 L 131.618 400 C 135.179 400 138.065 397.113 138.065 393.553 C 138.065 389.992 135.179 387.104 131.618 387.104 L 123.963 387.104 L 119.647 309.425 C 142.955 305.883 164.351 294.4 180.302 276.772 C 197.415 257.861 206.839 233.389 206.839 207.863 C 206.839 167.754 195.83 117.442 178.107 76.563 Z M 97.17 387.104 L 104.095 262.451 C 104.099 262.451 104.104 262.452 104.109 262.452 C 104.113 262.452 104.118 262.451 104.122 262.451 L 111.048 387.104 L 97.17 387.104 Z M 170.741 268.119 C 157.068 283.228 138.824 293.158 118.927 296.464 L 116.498 252.734 L 149.932 219.3 C 152.45 216.782 152.45 212.699 149.932 210.182 C 147.414 207.664 143.331 207.664 140.814 210.182 L 115.538 235.458 L 113.964 207.127 L 129.3 191.791 C 131.818 189.273 131.818 185.19 129.3 182.673 C 126.782 180.155 122.699 180.155 120.182 182.673 L 113.005 189.851 L 110.546 145.611 C 110.357 142.194 107.532 139.521 104.109 139.521 C 100.688 139.521 97.862 142.194 97.672 145.611 L 93.767 215.914 L 67.405 189.551 C 64.887 187.033 60.804 187.033 58.287 189.551 C 55.769 192.069 55.769 196.152 58.287 198.669 L 92.808 233.189 L 89.291 296.483 C 46.206 289.362 14.273 252.065 14.273 207.863 C 14.273 169.986 25.133 120.461 41.941 81.692 C 60.354 39.224 83.012 14.867 104.109 14.867 C 125.205 14.867 147.864 39.224 166.276 81.692 C 183.084 120.461 193.945 169.986 193.945 207.863 C 193.945 230.185 185.703 251.584 170.741 268.119 Z" style=""></path>

</g>
<g transform="translate(50, 933) scale(0.5)">
<path style="stroke: rgb(0, 0, 0); fill: rgb(225, 69, 65);" d="M 115.328 301.322 C 124.174 301.322 136.988 302.015 144.722 297.361 C 154.433 291.515 159.218 282.378 167.095 274.475 C 170.736 270.822 174.011 266.319 176.308 261.711 C 178.228 257.86 181.79 256.434 183.767 252.47 C 188.376 243.219 193.919 235.494 196.489 225.182 C 199.206 214.274 206.042 202.34 203.068 190.412 C 199.037 174.23 194.439 157.544 190.347 141.12 C 189.214 136.578 189.442 131.564 188.154 127.037 C 187.013 123.034 184.914 118.548 184.205 114.273 C 180.995 94.955 178.07 71.15 165.78 55.738 C 153.882 40.818 138.567 25.796 126.296 13.487 C 122.676 9.854 113.158 8.136 108.31 7.325 C 105.998 6.939 103.647 6.445 101.29 6.445 C 100.401 6.445 97.918 5.511 98.658 6.005 C 99.202 6.369 101.066 6.885 100.413 6.885 C 97.008 13.717 86.867 15.316 81.11 19.648 C 69.701 28.233 61.114 40.149 51.279 50.017 C 34.665 66.683 27.305 92.056 24.078 114.712 C 22.763 123.955 19.742 134.314 17.497 143.321 C 15.163 152.692 17.195 163.461 14.865 172.809 C 12.469 182.427 12.234 193.126 12.234 203.177 C 12.234 219.388 9.767 236.242 14.865 251.59 C 16.39 256.176 19.785 259.651 22.323 263.472 C 23.608 265.406 28.465 273.595 30.221 273.595 C 28.464 270.952 33.284 277.022 35.046 278.436 C 39.303 281.852 43.595 284.594 48.207 287.678 C 60.875 296.15 77.296 302.203 92.078 302.203"></path>
  <path d="M 103.117 256.636 L 117.646 388.111 L 88.589 388.111 L 103.117 256.636 Z" style="stroke: rgb(0, 0, 0); fill: rgb(111, 54, 15);" bx:shape="triangle 88.589 256.636 29.057 131.475 0.5 0 1@3eab460e"></path>
  <path d="M 178.107 76.563 C 157.253 28.462 130.974 1.972 104.109 1.972 C 77.244 1.972 50.965 28.462 30.111 76.563 C 12.388 117.442 1.378 167.754 1.378 207.863 C 1.378 258.884 38.59 301.858 88.571 309.421 L 84.254 387.104 L 76.599 387.104 C 73.038 387.104 70.152 389.992 70.152 393.553 C 70.152 397.113 73.038 400 76.599 400 L 131.618 400 C 135.179 400 138.065 397.113 138.065 393.553 C 138.065 389.992 135.179 387.104 131.618 387.104 L 123.963 387.104 L 119.647 309.425 C 142.955 305.883 164.351 294.4 180.302 276.772 C 197.415 257.861 206.839 233.389 206.839 207.863 C 206.839 167.754 195.83 117.442 178.107 76.563 Z M 97.17 387.104 L 104.095 262.451 C 104.099 262.451 104.104 262.452 104.109 262.452 C 104.113 262.452 104.118 262.451 104.122 262.451 L 111.048 387.104 L 97.17 387.104 Z M 170.741 268.119 C 157.068 283.228 138.824 293.158 118.927 296.464 L 116.498 252.734 L 149.932 219.3 C 152.45 216.782 152.45 212.699 149.932 210.182 C 147.414 207.664 143.331 207.664 140.814 210.182 L 115.538 235.458 L 113.964 207.127 L 129.3 191.791 C 131.818 189.273 131.818 185.19 129.3 182.673 C 126.782 180.155 122.699 180.155 120.182 182.673 L 113.005 189.851 L 110.546 145.611 C 110.357 142.194 107.532 139.521 104.109 139.521 C 100.688 139.521 97.862 142.194 97.672 145.611 L 93.767 215.914 L 67.405 189.551 C 64.887 187.033 60.804 187.033 58.287 189.551 C 55.769 192.069 55.769 196.152 58.287 198.669 L 92.808 233.189 L 89.291 296.483 C 46.206 289.362 14.273 252.065 14.273 207.863 C 14.273 169.986 25.133 120.461 41.941 81.692 C 60.354 39.224 83.012 14.867 104.109 14.867 C 125.205 14.867 147.864 39.224 166.276 81.692 C 183.084 120.461 193.945 169.986 193.945 207.863 C 193.945 230.185 185.703 251.584 170.741 268.119 Z" style=""></path>

</g>
<g transform="translate(838, 1568) scale(0.5)">
<path style="stroke: rgb(0, 0, 0); fill: rgb(225, 69, 65);" d="M 115.328 301.322 C 124.174 301.322 136.988 302.015 144.722 297.361 C 154.433 291.515 159.218 282.378 167.095 274.475 C 170.736 270.822 174.011 266.319 176.308 261.711 C 178.228 257.86 181.79 256.434 183.767 252.47 C 188.376 243.219 193.919 235.494 196.489 225.182 C 199.206 214.274 206.042 202.34 203.068 190.412 C 199.037 174.23 194.439 157.544 190.347 141.12 C 189.214 136.578 189.442 131.564 188.154 127.037 C 187.013 123.034 184.914 118.548 184.205 114.273 C 180.995 94.955 178.07 71.15 165.78 55.738 C 153.882 40.818 138.567 25.796 126.296 13.487 C 122.676 9.854 113.158 8.136 108.31 7.325 C 105.998 6.939 103.647 6.445 101.29 6.445 C 100.401 6.445 97.918 5.511 98.658 6.005 C 99.202 6.369 101.066 6.885 100.413 6.885 C 97.008 13.717 86.867 15.316 81.11 19.648 C 69.701 28.233 61.114 40.149 51.279 50.017 C 34.665 66.683 27.305 92.056 24.078 114.712 C 22.763 123.955 19.742 134.314 17.497 143.321 C 15.163 152.692 17.195 163.461 14.865 172.809 C 12.469 182.427 12.234 193.126 12.234 203.177 C 12.234 219.388 9.767 236.242 14.865 251.59 C 16.39 256.176 19.785 259.651 22.323 263.472 C 23.608 265.406 28.465 273.595 30.221 273.595 C 28.464 270.952 33.284 277.022 35.046 278.436 C 39.303 281.852 43.595 284.594 48.207 287.678 C 60.875 296.15 77.296 302.203 92.078 302.203"></path>
  <path d="M 103.117 256.636 L 117.646 388.111 L 88.589 388.111 L 103.117 256.636 Z" style="stroke: rgb(0, 0, 0); fill: rgb(111, 54, 15);" bx:shape="triangle 88.589 256.636 29.057 131.475 0.5 0 1@3eab460e"></path>
  <path d="M 178.107 76.563 C 157.253 28.462 130.974 1.972 104.109 1.972 C 77.244 1.972 50.965 28.462 30.111 76.563 C 12.388 117.442 1.378 167.754 1.378 207.863 C 1.378 258.884 38.59 301.858 88.571 309.421 L 84.254 387.104 L 76.599 387.104 C 73.038 387.104 70.152 389.992 70.152 393.553 C 70.152 397.113 73.038 400 76.599 400 L 131.618 400 C 135.179 400 138.065 397.113 138.065 393.553 C 138.065 389.992 135.179 387.104 131.618 387.104 L 123.963 387.104 L 119.647 309.425 C 142.955 305.883 164.351 294.4 180.302 276.772 C 197.415 257.861 206.839 233.389 206.839 207.863 C 206.839 167.754 195.83 117.442 178.107 76.563 Z M 97.17 387.104 L 104.095 262.451 C 104.099 262.451 104.104 262.452 104.109 262.452 C 104.113 262.452 104.118 262.451 104.122 262.451 L 111.048 387.104 L 97.17 387.104 Z M 170.741 268.119 C 157.068 283.228 138.824 293.158 118.927 296.464 L 116.498 252.734 L 149.932 219.3 C 152.45 216.782 152.45 212.699 149.932 210.182 C 147.414 207.664 143.331 207.664 140.814 210.182 L 115.538 235.458 L 113.964 207.127 L 129.3 191.791 C 131.818 189.273 131.818 185.19 129.3 182.673 C 126.782 180.155 122.699 180.155 120.182 182.673 L 113.005 189.851 L 110.546 145.611 C 110.357 142.194 107.532 139.521 104.109 139.521 C 100.688 139.521 97.862 142.194 97.672 145.611 L 93.767 215.914 L 67.405 189.551 C 64.887 187.033 60.804 187.033 58.287 189.551 C 55.769 192.069 55.769 196.152 58.287 198.669 L 92.808 233.189 L 89.291 296.483 C 46.206 289.362 14.273 252.065 14.273 207.863 C 14.273 169.986 25.133 120.461 41.941 81.692 C 60.354 39.224 83.012 14.867 104.109 14.867 C 125.205 14.867 147.864 39.224 166.276 81.692 C 183.084 120.461 193.945 169.986 193.945 207.863 C 193.945 230.185 185.703 251.584 170.741 268.119 Z" style=""></path>

</g>
<g transform="translate(1136, 196) scale(0.5)">
<path style="stroke: rgb(0, 0, 0); fill: rgb(225, 69, 65);" d="M 115.328 301.322 C 124.174 301.322 136.988 302.015 144.722 297.361 C 154.433 291.515 159.218 282.378 167.095 274.475 C 170.736 270.822 174.011 266.319 176.308 261.711 C 178.228 257.86 181.79 256.434 183.767 252.47 C 188.376 243.219 193.919 235.494 196.489 225.182 C 199.206 214.274 206.042 202.34 203.068 190.412 C 199.037 174.23 194.439 157.544 190.347 141.12 C 189.214 136.578 189.442 131.564 188.154 127.037 C 187.013 123.034 184.914 118.548 184.205 114.273 C 180.995 94.955 178.07 71.15 165.78 55.738 C 153.882 40.818 138.567 25.796 126.296 13.487 C 122.676 9.854 113.158 8.136 108.31 7.325 C 105.998 6.939 103.647 6.445 101.29 6.445 C 100.401 6.445 97.918 5.511 98.658 6.005 C 99.202 6.369 101.066 6.885 100.413 6.885 C 97.008 13.717 86.867 15.316 81.11 19.648 C 69.701 28.233 61.114 40.149 51.279 50.017 C 34.665 66.683 27.305 92.056 24.078 114.712 C 22.763 123.955 19.742 134.314 17.497 143.321 C 15.163 152.692 17.195 163.461 14.865 172.809 C 12.469 182.427 12.234 193.126 12.234 203.177 C 12.234 219.388 9.767 236.242 14.865 251.59 C 16.39 256.176 19.785 259.651 22.323 263.472 C 23.608 265.406 28.465 273.595 30.221 273.595 C 28.464 270.952 33.284 277.022 35.046 278.436 C 39.303 281.852 43.595 284.594 48.207 287.678 C 60.875 296.15 77.296 302.203 92.078 302.203"></path>
  <path d="M 103.117 256.636 L 117.646 388.111 L 88.589 388.111 L 103.117 256.636 Z" style="stroke: rgb(0, 0, 0); fill: rgb(111, 54, 15);" bx:shape="triangle 88.589 256.636 29.057 131.475 0.5 0 1@3eab460e"></path>
  <path d="M 178.107 76.563 C 157.253 28.462 130.974 1.972 104.109 1.972 C 77.244 1.972 50.965 28.462 30.111 76.563 C 12.388 117.442 1.378 167.754 1.378 207.863 C 1.378 258.884 38.59 301.858 88.571 309.421 L 84.254 387.104 L 76.599 387.104 C 73.038 387.104 70.152 389.992 70.152 393.553 C 70.152 397.113 73.038 400 76.599 400 L 131.618 400 C 135.179 400 138.065 397.113 138.065 393.553 C 138.065 389.992 135.179 387.104 131.618 387.104 L 123.963 387.104 L 119.647 309.425 C 142.955 305.883 164.351 294.4 180.302 276.772 C 197.415 257.861 206.839 233.389 206.839 207.863 C 206.839 167.754 195.83 117.442 178.107 76.563 Z M 97.17 387.104 L 104.095 262.451 C 104.099 262.451 104.104 262.452 104.109 262.452 C 104.113 262.452 104.118 262.451 104.122 262.451 L 111.048 387.104 L 97.17 387.104 Z M 170.741 268.119 C 157.068 283.228 138.824 293.158 118.927 296.464 L 116.498 252.734 L 149.932 219.3 C 152.45 216.782 152.45 212.699 149.932 210.182 C 147.414 207.664 143.331 207.664 140.814 210.182 L 115.538 235.458 L 113.964 207.127 L 129.3 191.791 C 131.818 189.273 131.818 185.19 129.3 182.673 C 126.782 180.155 122.699 180.155 120.182 182.673 L 113.005 189.851 L 110.546 145.611 C 110.357 142.194 107.532 139.521 104.109 139.521 C 100.688 139.521 97.862 142.194 97.672 145.611 L 93.767 215.914 L 67.405 189.551 C 64.887 187.033 60.804 187.033 58.287 189.551 C 55.769 192.069 55.769 196.152 58.287 198.669 L 92.808 233.189 L 89.291 296.483 C 46.206 289.362 14.273 252.065 14.273 207.863 C 14.273 169.986 25.133 120.461 41.941 81.692 C 60.354 39.224 83.012 14.867 104.109 14.867 C 125.205 14.867 147.864 39.224 166.276 81.692 C 183.084 120.461 193.945 169.986 193.945 207.863 C 193.945 230.185 185.703 251.584 170.741 268.119 Z" style=""></path>

</g>
<g transform="translate(1709, 786) scale(0.5)">
<path style="stroke: rgb(0, 0, 0); fill: rgb(225, 69, 65);" d="M 115.328 301.322 C 124.174 301.322 136.988 302.015 144.722 297.361 C 154.433 291.515 159.218 282.378 167.095 274.475 C 170.736 270.822 174.011 266.319 176.308 261.711 C 178.228 257.86 181.79 256.434 183.767 252.47 C 188.376 243.219 193.919 235.494 196.489 225.182 C 199.206 214.274 206.042 202.34 203.068 190.412 C 199.037 174.23 194.439 157.544 190.347 141.12 C 189.214 136.578 189.442 131.564 188.154 127.037 C 187.013 123.034 184.914 118.548 184.205 114.273 C 180.995 94.955 178.07 71.15 165.78 55.738 C 153.882 40.818 138.567 25.796 126.296 13.487 C 122.676 9.854 113.158 8.136 108.31 7.325 C 105.998 6.939 103.647 6.445 101.29 6.445 C 100.401 6.445 97.918 5.511 98.658 6.005 C 99.202 6.369 101.066 6.885 100.413 6.885 C 97.008 13.717 86.867 15.316 81.11 19.648 C 69.701 28.233 61.114 40.149 51.279 50.017 C 34.665 66.683 27.305 92.056 24.078 114.712 C 22.763 123.955 19.742 134.314 17.497 143.321 C 15.163 152.692 17.195 163.461 14.865 172.809 C 12.469 182.427 12.234 193.126 12.234 203.177 C 12.234 219.388 9.767 236.242 14.865 251.59 C 16.39 256.176 19.785 259.651 22.323 263.472 C 23.608 265.406 28.465 273.595 30.221 273.595 C 28.464 270.952 33.284 277.022 35.046 278.436 C 39.303 281.852 43.595 284.594 48.207 287.678 C 60.875 296.15 77.296 302.203 92.078 302.203"></path>
  <path d="M 103.117 256.636 L 117.646 388.111 L 88.589 388.111 L 103.117 256.636 Z" style="stroke: rgb(0, 0, 0); fill: rgb(111, 54, 15);" bx:shape="triangle 88.589 256.636 29.057 131.475 0.5 0 1@3eab460e"></path>
  <path d="M 178.107 76.563 C 157.253 28.462 130.974 1.972 104.109 1.972 C 77.244 1.972 50.965 28.462 30.111 76.563 C 12.388 117.442 1.378 167.754 1.378 207.863 C 1.378 258.884 38.59 301.858 88.571 309.421 L 84.254 387.104 L 76.599 387.104 C 73.038 387.104 70.152 389.992 70.152 393.553 C 70.152 397.113 73.038 400 76.599 400 L 131.618 400 C 135.179 400 138.065 397.113 138.065 393.553 C 138.065 389.992 135.179 387.104 131.618 387.104 L 123.963 387.104 L 119.647 309.425 C 142.955 305.883 164.351 294.4 180.302 276.772 C 197.415 257.861 206.839 233.389 206.839 207.863 C 206.839 167.754 195.83 117.442 178.107 76.563 Z M 97.17 387.104 L 104.095 262.451 C 104.099 262.451 104.104 262.452 104.109 262.452 C 104.113 262.452 104.118 262.451 104.122 262.451 L 111.048 387.104 L 97.17 387.104 Z M 170.741 268.119 C 157.068 283.228 138.824 293.158 118.927 296.464 L 116.498 252.734 L 149.932 219.3 C 152.45 216.782 152.45 212.699 149.932 210.182 C 147.414 207.664 143.331 207.664 140.814 210.182 L 115.538 235.458 L 113.964 207.127 L 129.3 191.791 C 131.818 189.273 131.818 185.19 129.3 182.673 C 126.782 180.155 122.699 180.155 120.182 182.673 L 113.005 189.851 L 110.546 145.611 C 110.357 142.194 107.532 139.521 104.109 139.521 C 100.688 139.521 97.862 142.194 97.672 145.611 L 93.767 215.914 L 67.405 189.551 C 64.887 187.033 60.804 187.033 58.287 189.551 C 55.769 192.069 55.769 196.152 58.287 198.669 L 92.808 233.189 L 89.291 296.483 C 46.206 289.362 14.273 252.065 14.273 207.863 C 14.273 169.986 25.133 120.461 41.941 81.692 C 60.354 39.224 83.012 14.867 104.109 14.867 C 125.205 14.867 147.864 39.224 166.276 81.692 C 183.084 120.461 193.945 169.986 193.945 207.863 C 193.945 230.185 185.703 251.584 170.741 268.119 Z" style=""></path>

</g>
<g transform="translate(1515, 985) scale(0.5)">
<path style="stroke: rgb(0, 0, 0); fill: rgb(225, 69, 65);" d="M 115.328 301.322 C 124.174 301.322 136.988 302.015 144.722 297.361 C 154.433 291.515 159.218 282.378 167.095 274.475 C 170.736 270.822 174.011 266.319 176.308 261.711 C 178.228 257.86 181.79 256.434 183.767 252.47 C 188.376 243.219 193.919 235.494 196.489 225.182 C 199.206 214.274 206.042 202.34 203.068 190.412 C 199.037 174.23 194.439 157.544 190.347 141.12 C 189.214 136.578 189.442 131.564 188.154 127.037 C 187.013 123.034 184.914 118.548 184.205 114.273 C 180.995 94.955 178.07 71.15 165.78 55.738 C 153.882 40.818 138.567 25.796 126.296 13.487 C 122.676 9.854 113.158 8.136 108.31 7.325 C 105.998 6.939 103.647 6.445 101.29 6.445 C 100.401 6.445 97.918 5.511 98.658 6.005 C 99.202 6.369 101.066 6.885 100.413 6.885 C 97.008 13.717 86.867 15.316 81.11 19.648 C 69.701 28.233 61.114 40.149 51.279 50.017 C 34.665 66.683 27.305 92.056 24.078 114.712 C 22.763 123.955 19.742 134.314 17.497 143.321 C 15.163 152.692 17.195 163.461 14.865 172.809 C 12.469 182.427 12.234 193.126 12.234 203.177 C 12.234 219.388 9.767 236.242 14.865 251.59 C 16.39 256.176 19.785 259.651 22.323 263.472 C 23.608 265.406 28.465 273.595 30.221 273.595 C 28.464 270.952 33.284 277.022 35.046 278.436 C 39.303 281.852 43.595 284.594 48.207 287.678 C 60.875 296.15 77.296 302.203 92.078 302.203"></path>
  <path d="M 103.117 256.636 L 117.646 388.111 L 88.589 388.111 L 103.117 256.636 Z" style="stroke: rgb(0, 0, 0); fill: rgb(111, 54, 15);" bx:shape="triangle 88.589 256.636 29.057 131.475 0.5 0 1@3eab460e"></path>
  <path d="M 178.107 76.563 C 157.253 28.462 130.974 1.972 104.109 1.972 C 77.244 1.972 50.965 28.462 30.111 76.563 C 12.388 117.442 1.378 167.754 1.378 207.863 C 1.378 258.884 38.59 301.858 88.571 309.421 L 84.254 387.104 L 76.599 387.104 C 73.038 387.104 70.152 389.992 70.152 393.553 C 70.152 397.113 73.038 400 76.599 400 L 131.618 400 C 135.179 400 138.065 397.113 138.065 393.553 C 138.065 389.992 135.179 387.104 131.618 387.104 L 123.963 387.104 L 119.647 309.425 C 142.955 305.883 164.351 294.4 180.302 276.772 C 197.415 257.861 206.839 233.389 206.839 207.863 C 206.839 167.754 195.83 117.442 178.107 76.563 Z M 97.17 387.104 L 104.095 262.451 C 104.099 262.451 104.104 262.452 104.109 262.452 C 104.113 262.452 104.118 262.451 104.122 262.451 L 111.048 387.104 L 97.17 387.104 Z M 170.741 268.119 C 157.068 283.228 138.824 293.158 118.927 296.464 L 116.498 252.734 L 149.932 219.3 C 152.45 216.782 152.45 212.699 149.932 210.182 C 147.414 207.664 143.331 207.664 140.814 210.182 L 115.538 235.458 L 113.964 207.127 L 129.3 191.791 C 131.818 189.273 131.818 185.19 129.3 182.673 C 126.782 180.155 122.699 180.155 120.182 182.673 L 113.005 189.851 L 110.546 145.611 C 110.357 142.194 107.532 139.521 104.109 139.521 C 100.688 139.521 97.862 142.194 97.672 145.611 L 93.767 215.914 L 67.405 189.551 C 64.887 187.033 60.804 187.033 58.287 189.551 C 55.769 192.069 55.769 196.152 58.287 198.669 L 92.808 233.189 L 89.291 296.483 C 46.206 289.362 14.273 252.065 14.273 207.863 C 14.273 169.986 25.133 120.461 41.941 81.692 C 60.354 39.224 83.012 14.867 104.109 14.867 C 125.205 14.867 147.864 39.224 166.276 81.692 C 183.084 120.461 193.945 169.986 193.945 207.863 C 193.945 230.185 185.703 251.584 170.741 268.119 Z" style=""></path>

</g>
<g transform="translate(1104, 1515) scale(0.5)">
<path style="stroke: rgb(0, 0, 0); fill: rgb(225, 69, 65);" d="M 115.328 301.322 C 124.174 301.322 136.988 302.015 144.722 297.361 C 154.433 291.515 159.218 282.378 167.095 274.475 C 170.736 270.822 174.011 266.319 176.308 261.711 C 178.228 257.86 181.79 256.434 183.767 252.47 C 188.376 243.219 193.919 235.494 196.489 225.182 C 199.206 214.274 206.042 202.34 203.068 190.412 C 199.037 174.23 194.439 157.544 190.347 141.12 C 189.214 136.578 189.442 131.564 188.154 127.037 C 187.013 123.034 184.914 118.548 184.205 114.273 C 180.995 94.955 178.07 71.15 165.78 55.738 C 153.882 40.818 138.567 25.796 126.296 13.487 C 122.676 9.854 113.158 8.136 108.31 7.325 C 105.998 6.939 103.647 6.445 101.29 6.445 C 100.401 6.445 97.918 5.511 98.658 6.005 C 99.202 6.369 101.066 6.885 100.413 6.885 C 97.008 13.717 86.867 15.316 81.11 19.648 C 69.701 28.233 61.114 40.149 51.279 50.017 C 34.665 66.683 27.305 92.056 24.078 114.712 C 22.763 123.955 19.742 134.314 17.497 143.321 C 15.163 152.692 17.195 163.461 14.865 172.809 C 12.469 182.427 12.234 193.126 12.234 203.177 C 12.234 219.388 9.767 236.242 14.865 251.59 C 16.39 256.176 19.785 259.651 22.323 263.472 C 23.608 265.406 28.465 273.595 30.221 273.595 C 28.464 270.952 33.284 277.022 35.046 278.436 C 39.303 281.852 43.595 284.594 48.207 287.678 C 60.875 296.15 77.296 302.203 92.078 302.203"></path>
  <path d="M 103.117 256.636 L 117.646 388.111 L 88.589 388.111 L 103.117 256.636 Z" style="stroke: rgb(0, 0, 0); fill: rgb(111, 54, 15);" bx:shape="triangle 88.589 256.636 29.057 131.475 0.5 0 1@3eab460e"></path>
  <path d="M 178.107 76.563 C 157.253 28.462 130.974 1.972 104.109 1.972 C 77.244 1.972 50.965 28.462 30.111 76.563 C 12.388 117.442 1.378 167.754 1.378 207.863 C 1.378 258.884 38.59 301.858 88.571 309.421 L 84.254 387.104 L 76.599 387.104 C 73.038 387.104 70.152 389.992 70.152 393.553 C 70.152 397.113 73.038 400 76.599 400 L 131.618 400 C 135.179 400 138.065 397.113 138.065 393.553 C 138.065 389.992 135.179 387.104 131.618 387.104 L 123.963 387.104 L 119.647 309.425 C 142.955 305.883 164.351 294.4 180.302 276.772 C 197.415 257.861 206.839 233.389 206.839 207.863 C 206.839 167.754 195.83 117.442 178.107 76.563 Z M 97.17 387.104 L 104.095 262.451 C 104.099 262.451 104.104 262.452 104.109 262.452 C 104.113 262.452 104.118 262.451 104.122 262.451 L 111.048 387.104 L 97.17 387.104 Z M 170.741 268.119 C 157.068 283.228 138.824 293.158 118.927 296.464 L 116.498 252.734 L 149.932 219.3 C 152.45 216.782 152.45 212.699 149.932 210.182 C 147.414 207.664 143.331 207.664 140.814 210.182 L 115.538 235.458 L 113.964 207.127 L 129.3 191.791 C 131.818 189.273 131.818 185.19 129.3 182.673 C 126.782 180.155 122.699 180.155 120.182 182.673 L 113.005 189.851 L 110.546 145.611 C 110.357 142.194 107.532 139.521 104.109 139.521 C 100.688 139.521 97.862 142.194 97.672 145.611 L 93.767 215.914 L 67.405 189.551 C 64.887 187.033 60.804 187.033 58.287 189.551 C 55.769 192.069 55.769 196.152 58.287 198.669 L 92.808 233.189 L 89.291 296.483 C 46.206 289.362 14.273 252.065 14.273 207.863 C 14.273 169.986 25.133 120.461 41.941 81.692 C 60.354 39.224 83.012 14.867 104.109 14.867 C 125.205 14.867 147.864 39.224 166.276 81.692 C 183.084 120.461 193.945 169.986 193.945 207.863 C 193.945 230.185 185.703 251.584 170.741 268.119 Z" style=""></path>

</g>
<g transform="translate(530, 576) scale(0.5)">
<path style="stroke: rgb(0, 0, 0); fill: rgb(225, 69, 65);" d="M 115.328 301.322 C 124.174 301.322 136.988 302.015 144.722 297.361 C 154.433 291.515 159.218 282.378 167.095 274.475 C 170.736 270.822 174.011 266.319 176.308 261.711 C 178.228 257.86 181.79 256.434 183.767 252.47 C 188.376 243.219 193.919 235.494 196.489 225.182 C 199.206 214.274 206.042 202.34 203.068 190.412 C 199.037 174.23 194.439 157.544 190.347 141.12 C 189.214 136.578 189.442 131.564 188.154 127.037 C 187.013 123.034 184.914 118.548 184.205 114.273 C 180.995 94.955 178.07 71.15 165.78 55.738 C 153.882 40.818 138.567 25.796 126.296 13.487 C 122.676 9.854 113.158 8.136 108.31 7.325 C 105.998 6.939 103.647 6.445 101.29 6.445 C 100.401 6.445 97.918 5.511 98.658 6.005 C 99.202 6.369 101.066 6.885 100.413 6.885 C 97.008 13.717 86.867 15.316 81.11 19.648 C 69.701 28.233 61.114 40.149 51.279 50.017 C 34.665 66.683 27.305 92.056 24.078 114.712 C 22.763 123.955 19.742 134.314 17.497 143.321 C 15.163 152.692 17.195 163.461 14.865 172.809 C 12.469 182.427 12.234 193.126 12.234 203.177 C 12.234 219.388 9.767 236.242 14.865 251.59 C 16.39 256.176 19.785 259.651 22.323 263.472 C 23.608 265.406 28.465 273.595 30.221 273.595 C 28.464 270.952 33.284 277.022 35.046 278.436 C 39.303 281.852 43.595 284.594 48.207 287.678 C 60.875 296.15 77.296 302.203 92.078 302.203"></path>
  <path d="M 103.117 256.636 L 117.646 388.111 L 88.589 388.111 L 103.117 256.636 Z" style="stroke: rgb(0, 0, 0); fill: rgb(111, 54, 15);" bx:shape="triangle 88.589 256.636 29.057 131.475 0.5 0 1@3eab460e"></path>
  <path d="M 178.107 76.563 C 157.253 28.462 130.974 1.972 104.109 1.972 C 77.244 1.972 50.965 28.462 30.111 76.563 C 12.388 117.442 1.378 167.754 1.378 207.863 C 1.378 258.884 38.59 301.858 88.571 309.421 L 84.254 387.104 L 76.599 387.104 C 73.038 387.104 70.152 389.992 70.152 393.553 C 70.152 397.113 73.038 400 76.599 400 L 131.618 400 C 135.179 400 138.065 397.113 138.065 393.553 C 138.065 389.992 135.179 387.104 131.618 387.104 L 123.963 387.104 L 119.647 309.425 C 142.955 305.883 164.351 294.4 180.302 276.772 C 197.415 257.861 206.839 233.389 206.839 207.863 C 206.839 167.754 195.83 117.442 178.107 76.563 Z M 97.17 387.104 L 104.095 262.451 C 104.099 262.451 104.104 262.452 104.109 262.452 C 104.113 262.452 104.118 262.451 104.122 262.451 L 111.048 387.104 L 97.17 387.104 Z M 170.741 268.119 C 157.068 283.228 138.824 293.158 118.927 296.464 L 116.498 252.734 L 149.932 219.3 C 152.45 216.782 152.45 212.699 149.932 210.182 C 147.414 207.664 143.331 207.664 140.814 210.182 L 115.538 235.458 L 113.964 207.127 L 129.3 191.791 C 131.818 189.273 131.818 185.19 129.3 182.673 C 126.782 180.155 122.699 180.155 120.182 182.673 L 113.005 189.851 L 110.546 145.611 C 110.357 142.194 107.532 139.521 104.109 139.521 C 100.688 139.521 97.862 142.194 97.672 145.611 L 93.767 215.914 L 67.405 189.551 C 64.887 187.033 60.804 187.033 58.287 189.551 C 55.769 192.069 55.769 196.152 58.287 198.669 L 92.808 233.189 L 89.291 296.483 C 46.206 289.362 14.273 252.065 14.273 207.863 C 14.273 169.986 25.133 120.461 41.941 81.692 C 60.354 39.224 83.012 14.867 104.109 14.867 C 125.205 14.867 147.864 39.224 166.276 81.692 C 183.084 120.461 193.945 169.986 193.945 207.863 C 193.945 230.185 185.703 251.584 170.741 268.119 Z" style=""></path>

</g>
<g transform="translate(948, 359) scale(0.5)">
<path style="stroke: rgb(0, 0, 0); fill: rgb(225, 69, 65);" d="M 115.328 301.322 C 124.174 301.322 136.988 302.015 144.722 297.361 C 154.433 291.515 159.218 282.378 167.095 274.475 C 170.736 270.822 174.011 266.319 176.308 261.711 C 178.228 257.86 181.79 256.434 183.767 252.47 C 188.376 243.219 193.919 235.494 196.489 225.182 C 199.206 214.274 206.042 202.34 203.068 190.412 C 199.037 174.23 194.439 157.544 190.347 141.12 C 189.214 136.578 189.442 131.564 188.154 127.037 C 187.013 123.034 184.914 118.548 184.205 114.273 C 180.995 94.955 178.07 71.15 165.78 55.738 C 153.882 40.818 138.567 25.796 126.296 13.487 C 122.676 9.854 113.158 8.136 108.31 7.325 C 105.998 6.939 103.647 6.445 101.29 6.445 C 100.401 6.445 97.918 5.511 98.658 6.005 C 99.202 6.369 101.066 6.885 100.413 6.885 C 97.008 13.717 86.867 15.316 81.11 19.648 C 69.701 28.233 61.114 40.149 51.279 50.017 C 34.665 66.683 27.305 92.056 24.078 114.712 C 22.763 123.955 19.742 134.314 17.497 143.321 C 15.163 152.692 17.195 163.461 14.865 172.809 C 12.469 182.427 12.234 193.126 12.234 203.177 C 12.234 219.388 9.767 236.242 14.865 251.59 C 16.39 256.176 19.785 259.651 22.323 263.472 C 23.608 265.406 28.465 273.595 30.221 273.595 C 28.464 270.952 33.284 277.022 35.046 278.436 C 39.303 281.852 43.595 284.594 48.207 287.678 C 60.875 296.15 77.296 302.203 92.078 302.203"></path>
  <path d="M 103.117 256.636 L 117.646 388.111 L 88.589 388.111 L 103.117 256.636 Z" style="stroke: rgb(0, 0, 0); fill: rgb(111, 54, 15);" bx:shape="triangle 88.589 256.636 29.057 131.475 0.5 0 1@3eab460e"></path>
  <path d="M 178.107 76.563 C 157.253 28.462 130.974 1.972 104.109 1.972 C 77.244 1.972 50.965 28.462 30.111 76.563 C 12.388 117.442 1.378 167.754 1.378 207.863 C 1.378 258.884 38.59 301.858 88.571 309.421 L 84.254 387.104 L 76.599 387.104 C 73.038 387.104 70.152 389.992 70.152 393.553 C 70.152 397.113 73.038 400 76.599 400 L 131.618 400 C 135.179 400 138.065 397.113 138.065 393.553 C 138.065 389.992 135.179 387.104 131.618 387.104 L 123.963 387.104 L 119.647 309.425 C 142.955 305.883 164.351 294.4 180.302 276.772 C 197.415 257.861 206.839 233.389 206.839 207.863 C 206.839 167.754 195.83 117.442 178.107 76.563 Z M 97.17 387.104 L 104.095 262.451 C 104.099 262.451 104.104 262.452 104.109 262.452 C 104.113 262.452 104.118 262.451 104.122 262.451 L 111.048 387.104 L 97.17 387.104 Z M 170.741 268.119 C 157.068 283.228 138.824 293.158 118.927 296.464 L 116.498 252.734 L 149.932 219.3 C 152.45 216.782 152.45 212.699 149.932 210.182 C 147.414 207.664 143.331 207.664 140.814 210.182 L 115.538 235.458 L 113.964 207.127 L 129.3 191.791 C 131.818 189.273 131.818 185.19 129.3 182.673 C 126.782 180.155 122.699 180.155 120.182 182.673 L 113.005 189.851 L 110.546 145.611 C 110.357 142.194 107.532 139.521 104.109 139.521 C 100.688 139.521 97.862 142.194 97.672 145.611 L 93.767 215.914 L 67.405 189.551 C 64.887 187.033 60.804 187.033 58.287 189.551 C 55.769 192.069 55.769 196.152 58.287 198.669 L 92.808 233.189 L 89.291 296.483 C 46.206 289.362 14.273 252.065 14.273 207.863 C 14.273 169.986 25.133 120.461 41.941 81.692 C 60.354 39.224 83.012 14.867 104.109 14.867 C 125.205 14.867 147.864 39.224 166.276 81.692 C 183.084 120.461 193.945 169.986 193.945 207.863 C 193.945 230.185 185.703 251.584 170.741 268.119 Z" style=""></path>

</g>
</svg>
