<svg width="2000" height="2000" xmlns="http://www.w3.org/2000/svg" xmlns:bx="https://boxy-svg.com">
<rect fill="#FF7878" width="2000" height="2000"  /><g transform="translate(1557, 1183) scale(1)">
<path style="stroke: rgb(0, 0, 0); fill: rgb(93, 163, 121);" d="M 133.882 22.179 C 131.886 28.167 128.18 32.288 123.653 36.061 C 119.932 39.162 118.094 45.273 114.886 48.481 C 108.916 54.452 99.609 64.931 93.699 74.783 C 69.121 115.746 54.484 148.098 36.711 183.643 C 31.399 194.269 29.875 206.762 37.442 214.329 C 39.585 216.472 43.029 216.994 44.748 218.712 C 45.966 219.93 50.836 217.495 52.054 218.712 C 54.75 221.409 59.544 235.148 56.438 241.361 C 53.836 246.564 45.17 248.976 41.095 253.051 C 30.639 263.507 29.11 282.57 19.907 291.773 C 17.487 294.193 18.443 299.813 16.254 302.002 C 14.628 303.628 16.734 313.201 17.715 313.691 C 24.388 317.028 35.602 321.854 46.94 318.075 C 58.722 314.148 70.316 312.961 83.47 312.961 C 98.174 312.961 114.68 313.76 128.037 309.308 C 139.812 305.383 167.595 306.907 179.18 310.769 C 183.084 312.07 187.937 309.668 191.6 311.5 C 198.205 314.802 209.372 309.143 216.441 311.5 C 226.806 314.954 247.776 314.502 253.701 308.577 C 257.74 304.538 248.883 289.877 247.857 288.851 C 242.722 283.716 242.48 268.862 237.628 264.01 C 227.079 253.461 217.042 240.372 209.865 226.018 C 200.869 208.027 226.273 218.378 231.783 212.868 C 238.787 205.864 235.886 199.155 231.053 189.488 C 222.522 172.426 212.425 158.078 203.29 139.807 C 191.815 116.858 173.949 98.545 166.759 76.975 C 164.357 69.767 157.268 60.908 153.608 57.248 C 148.642 52.282 147.36 43.694 143.38 39.714 C 141.218 37.552 136.804 30.947 136.804 27.293"></path>
  <path d="M 266.888 297.778 L 226.361 232.41 L 240.155 232.41 C 245.754 232.41 250.886 228.4 253.469 221.989 C 256.05 215.579 255.66 207.869 252.448 201.943 L 147.382 8.257 C 142.624 -0.497 133.272 -2.627 126.473 3.493 C 125.107 4.713 124.102 6.321 123.156 7.966 C 122.781 8.257 17.715 201.943 17.715 201.943 C 14.502 207.869 14.113 215.579 16.693 221.989 C 19.291 228.4 24.424 232.41 30.023 232.41 L 43.816 232.41 L 3.29 297.778 C -0.312 303.608 -1.017 311.569 1.474 318.29 C 3.981 324.972 9.25 329.252 15.012 329.252 L 124.284 329.252 L 125.966 384.835 C 125.966 395.546 128.485 400 136.77 400 C 145.055 400 147.575 395.546 147.575 384.835 L 148.417 329.252 L 255.165 329.252 C 260.927 329.252 266.196 324.972 268.688 318.29 C 271.195 311.569 270.49 303.608 266.888 297.778 Z M 148.417 303.127 L 146.735 194.513 C 146.735 183.803 143.374 174.304 135.088 174.304 C 126.803 174.304 125.125 184.643 125.125 195.353 L 124.284 303.968 L 21.863 305.65 L 69.956 230.173 C 73.559 224.344 77.627 220.606 75.135 213.885 C 72.63 207.203 69.042 206.284 63.279 206.284 L 40.342 206.284 L 135.088 32.954 L 230.173 205.443 L 211.103 205.443 C 205.339 205.443 199.23 205.52 196.738 212.202 C 194.231 218.923 197.46 224.344 201.077 230.173 L 244.966 303.968 L 148.417 303.127 Z" style="stroke-miterlimit: 5.83; stroke-width: 11px;"></path>

</g>
<g transform="translate(418, 562) scale(1)">
<path style="stroke: rgb(0, 0, 0); fill: rgb(93, 163, 121);" d="M 133.882 22.179 C 131.886 28.167 128.18 32.288 123.653 36.061 C 119.932 39.162 118.094 45.273 114.886 48.481 C 108.916 54.452 99.609 64.931 93.699 74.783 C 69.121 115.746 54.484 148.098 36.711 183.643 C 31.399 194.269 29.875 206.762 37.442 214.329 C 39.585 216.472 43.029 216.994 44.748 218.712 C 45.966 219.93 50.836 217.495 52.054 218.712 C 54.75 221.409 59.544 235.148 56.438 241.361 C 53.836 246.564 45.17 248.976 41.095 253.051 C 30.639 263.507 29.11 282.57 19.907 291.773 C 17.487 294.193 18.443 299.813 16.254 302.002 C 14.628 303.628 16.734 313.201 17.715 313.691 C 24.388 317.028 35.602 321.854 46.94 318.075 C 58.722 314.148 70.316 312.961 83.47 312.961 C 98.174 312.961 114.68 313.76 128.037 309.308 C 139.812 305.383 167.595 306.907 179.18 310.769 C 183.084 312.07 187.937 309.668 191.6 311.5 C 198.205 314.802 209.372 309.143 216.441 311.5 C 226.806 314.954 247.776 314.502 253.701 308.577 C 257.74 304.538 248.883 289.877 247.857 288.851 C 242.722 283.716 242.48 268.862 237.628 264.01 C 227.079 253.461 217.042 240.372 209.865 226.018 C 200.869 208.027 226.273 218.378 231.783 212.868 C 238.787 205.864 235.886 199.155 231.053 189.488 C 222.522 172.426 212.425 158.078 203.29 139.807 C 191.815 116.858 173.949 98.545 166.759 76.975 C 164.357 69.767 157.268 60.908 153.608 57.248 C 148.642 52.282 147.36 43.694 143.38 39.714 C 141.218 37.552 136.804 30.947 136.804 27.293"></path>
  <path d="M 266.888 297.778 L 226.361 232.41 L 240.155 232.41 C 245.754 232.41 250.886 228.4 253.469 221.989 C 256.05 215.579 255.66 207.869 252.448 201.943 L 147.382 8.257 C 142.624 -0.497 133.272 -2.627 126.473 3.493 C 125.107 4.713 124.102 6.321 123.156 7.966 C 122.781 8.257 17.715 201.943 17.715 201.943 C 14.502 207.869 14.113 215.579 16.693 221.989 C 19.291 228.4 24.424 232.41 30.023 232.41 L 43.816 232.41 L 3.29 297.778 C -0.312 303.608 -1.017 311.569 1.474 318.29 C 3.981 324.972 9.25 329.252 15.012 329.252 L 124.284 329.252 L 125.966 384.835 C 125.966 395.546 128.485 400 136.77 400 C 145.055 400 147.575 395.546 147.575 384.835 L 148.417 329.252 L 255.165 329.252 C 260.927 329.252 266.196 324.972 268.688 318.29 C 271.195 311.569 270.49 303.608 266.888 297.778 Z M 148.417 303.127 L 146.735 194.513 C 146.735 183.803 143.374 174.304 135.088 174.304 C 126.803 174.304 125.125 184.643 125.125 195.353 L 124.284 303.968 L 21.863 305.65 L 69.956 230.173 C 73.559 224.344 77.627 220.606 75.135 213.885 C 72.63 207.203 69.042 206.284 63.279 206.284 L 40.342 206.284 L 135.088 32.954 L 230.173 205.443 L 211.103 205.443 C 205.339 205.443 199.23 205.52 196.738 212.202 C 194.231 218.923 197.46 224.344 201.077 230.173 L 244.966 303.968 L 148.417 303.127 Z" style="stroke-miterlimit: 5.83; stroke-width: 11px;"></path>

</g>
</svg>
